<?xml version="1.0" encoding="utf-8" standalone="no"?>
<!DOCTYPE svg PUBLIC "-//W3C//DTD SVG 1.1//EN"
  "http://www.w3.org/Graphics/SVG/1.1/DTD/svg11.dtd">
<svg xmlns:xlink="http://www.w3.org/1999/xlink" width="1228.8pt" height="613.44pt" viewBox="0 0 1228.8 613.44" xmlns="http://www.w3.org/2000/svg" version="1.1">
 <metadata>
  <rdf:RDF xmlns:dc="http://purl.org/dc/elements/1.1/" xmlns:cc="http://creativecommons.org/ns#" xmlns:rdf="http://www.w3.org/1999/02/22-rdf-syntax-ns#">
   <cc:Work>
    <dc:type rdf:resource="http://purl.org/dc/dcmitype/StillImage"/>
    <dc:date>2024-09-16T22:00:29.024062</dc:date>
    <dc:format>image/svg+xml</dc:format>
    <dc:creator>
     <cc:Agent>
      <dc:title>Matplotlib v3.9.0, https://matplotlib.org/</dc:title>
     </cc:Agent>
    </dc:creator>
   </cc:Work>
  </rdf:RDF>
 </metadata>
 <defs>
  <style type="text/css">*{stroke-linejoin: round; stroke-linecap: butt}</style>
 </defs>
 <g id="figure_1">
  <g id="patch_1">
   <path d="M 0 613.44 
L 1228.8 613.44 
L 1228.8 0 
L 0 0 
z
" style="fill: #ffffff"/>
  </g>
  <g id="axes_1">
   <g id="PathCollection_1">
    <defs>
     <path id="md8496ffc09" d="M 0 1.414214 
C 0.375054 1.414214 0.734797 1.265203 1 1 
C 1.265203 0.734797 1.414214 0.375054 1.414214 0 
C 1.414214 -0.375054 1.265203 -0.734797 1 -1 
C 0.734797 -1.265203 0.375054 -1.414214 0 -1.414214 
C -0.375054 -1.414214 -0.734797 -1.265203 -1 -1 
C -1.265203 -0.734797 -1.414214 -0.375054 -1.414214 0 
C -1.414214 0.375054 -1.265203 0.734797 -1 1 
C -0.734797 1.265203 -0.375054 1.414214 0 1.414214 
z
" style="stroke: #000000"/>
    </defs>
    <g clip-path="url(#p316af75b4a)">
     <use xlink:href="#md8496ffc09" x="629.796376" y="219.228813" style="stroke: #000000"/>
     <use xlink:href="#md8496ffc09" x="635.470965" y="219.228813" style="stroke: #000000"/>
     <use xlink:href="#md8496ffc09" x="638.688804" y="233.353728" style="stroke: #000000"/>
     <use xlink:href="#md8496ffc09" x="642.594981" y="259.342675" style="stroke: #000000"/>
     <use xlink:href="#md8496ffc09" x="714.198896" y="223.599478" style="stroke: #000000"/>
     <use xlink:href="#md8496ffc09" x="760.149638" y="183.222593" style="stroke: #000000"/>
     <use xlink:href="#md8496ffc09" x="831.44576" y="135.609767" style="stroke: #000000"/>
     <use xlink:href="#md8496ffc09" x="917.890909" y="153.96544" style="stroke: #000000"/>
     <use xlink:href="#md8496ffc09" x="886.703053" y="246.163526" style="stroke: #000000"/>
     <use xlink:href="#md8496ffc09" x="854.060174" y="287.648467" style="stroke: #000000"/>
     <use xlink:href="#md8496ffc09" x="841.759634" y="340.409836" style="stroke: #000000"/>
     <use xlink:href="#md8496ffc09" x="791.79079" y="322.098932" style="stroke: #000000"/>
     <use xlink:href="#md8496ffc09" x="839.090227" y="351.46801" style="stroke: #000000"/>
     <use xlink:href="#md8496ffc09" x="825.390627" y="396.887109" style="stroke: #000000"/>
     <use xlink:href="#md8496ffc09" x="790.548424" y="424.571718" style="stroke: #000000"/>
     <use xlink:href="#md8496ffc09" x="815.188678" y="483.981422" style="stroke: #000000"/>
     <use xlink:href="#md8496ffc09" x="777.828167" y="459.150897" style="stroke: #000000"/>
     <use xlink:href="#md8496ffc09" x="771.610742" y="429.669894" style="stroke: #000000"/>
     <use xlink:href="#md8496ffc09" x="750.568872" y="463.320097" style="stroke: #000000"/>
     <use xlink:href="#md8496ffc09" x="717.601411" y="440.778434" style="stroke: #000000"/>
     <use xlink:href="#md8496ffc09" x="683.956805" y="416.630651" style="stroke: #000000"/>
     <use xlink:href="#md8496ffc09" x="660.575706" y="387.211207" style="stroke: #000000"/>
     <use xlink:href="#md8496ffc09" x="636.439115" y="307.537511" style="stroke: #000000"/>
     <use xlink:href="#md8496ffc09" x="643.406436" y="371.133204" style="stroke: #000000"/>
     <use xlink:href="#md8496ffc09" x="659.299763" y="400.048986" style="stroke: #000000"/>
     <use xlink:href="#md8496ffc09" x="629.796376" y="427.403416" style="stroke: #000000"/>
     <use xlink:href="#md8496ffc09" x="600.287392" y="400.048986" style="stroke: #000000"/>
     <use xlink:href="#md8496ffc09" x="616.180719" y="371.1388" style="stroke: #000000"/>
     <use xlink:href="#md8496ffc09" x="623.14804" y="307.537511" style="stroke: #000000"/>
     <use xlink:href="#md8496ffc09" x="599.011449" y="387.211207" style="stroke: #000000"/>
     <use xlink:href="#md8496ffc09" x="575.63035" y="416.630651" style="stroke: #000000"/>
     <use xlink:href="#md8496ffc09" x="541.985744" y="440.772838" style="stroke: #000000"/>
     <use xlink:href="#md8496ffc09" x="509.018283" y="463.325693" style="stroke: #000000"/>
     <use xlink:href="#md8496ffc09" x="487.982009" y="429.669894" style="stroke: #000000"/>
     <use xlink:href="#md8496ffc09" x="481.758988" y="459.150897" style="stroke: #000000"/>
     <use xlink:href="#md8496ffc09" x="444.398477" y="483.981422" style="stroke: #000000"/>
     <use xlink:href="#md8496ffc09" x="469.044327" y="424.566122" style="stroke: #000000"/>
     <use xlink:href="#md8496ffc09" x="434.185336" y="396.898302" style="stroke: #000000"/>
     <use xlink:href="#md8496ffc09" x="420.519313" y="351.451221" style="stroke: #000000"/>
     <use xlink:href="#md8496ffc09" x="467.751595" y="322.138106" style="stroke: #000000"/>
     <use xlink:href="#md8496ffc09" x="417.749173" y="340.348277" style="stroke: #000000"/>
     <use xlink:href="#md8496ffc09" x="404.301404" y="288.264054" style="stroke: #000000"/>
     <use xlink:href="#md8496ffc09" x="373.34859" y="245.704634" style="stroke: #000000"/>
     <use xlink:href="#md8496ffc09" x="341.629091" y="154.004614" style="stroke: #000000"/>
     <use xlink:href="#md8496ffc09" x="428.174972" y="135.592978" style="stroke: #000000"/>
     <use xlink:href="#md8496ffc09" x="499.426324" y="183.228189" style="stroke: #000000"/>
     <use xlink:href="#md8496ffc09" x="545.393855" y="223.599478" style="stroke: #000000"/>
     <use xlink:href="#md8496ffc09" x="616.986578" y="259.342675" style="stroke: #000000"/>
     <use xlink:href="#md8496ffc09" x="620.903947" y="233.359324" style="stroke: #000000"/>
     <use xlink:href="#md8496ffc09" x="624.11619" y="219.228813" style="stroke: #000000"/>
     <use xlink:href="#md8496ffc09" x="629.790779" y="219.228813" style="stroke: #000000"/>
    </g>
   </g>
   <g id="line2d_1">
    <path d="M 629.796376 219.228813 
L 631.68603 219.556134 
L 633.27405 220.482881 
L 634.597398 221.924868 
L 635.692219 223.795232 
L 636.59427 226.003771 
L 637.339146 228.456795 
L 638.499013 233.707024 
L 639.914067 241.12438 
L 640.97831 245.178784 
L 641.628894 246.855067 
L 642.395046 248.272647 
L 643.298527 249.423303 
L 644.336498 250.324848 
L 645.501065 250.998478 
L 646.785226 251.462683 
L 648.182649 251.733759 
L 649.687485 251.826222 
L 651.294196 251.753162 
L 652.997408 251.526541 
L 654.791778 251.157454 
L 658.632 250.033228 
L 662.768035 248.45978 
L 667.146074 246.51457 
L 671.702093 244.277697 
L 678.697019 240.566933 
L 687.858145 235.426037 
L 696.5897 230.299148 
L 704.873799 225.212897 
L 712.711782 220.186342 
L 721.91033 214.006953 
L 730.509094 207.953997 
L 740.182856 200.852099 
L 753.878776 190.447489 
L 769.049389 178.955197 
L 777.048577 173.138804 
L 783.707936 168.539117 
L 790.602586 164.078468 
L 795.930301 160.87506 
L 801.39416 157.833045 
L 806.995788 154.988072 
L 812.736811 152.375794 
L 818.618853 150.031859 
L 822.619361 148.635921 
L 826.683748 147.385654 
L 830.812496 146.291623 
L 835.006087 145.364388 
L 839.265001 144.614515 
L 843.589721 144.052566 
L 847.980728 143.689103 
L 852.437958 143.534648 
L 856.94188 143.59819 
L 861.448627 143.88681 
L 865.912801 144.407466 
L 870.289 145.167117 
L 874.531825 146.172721 
L 878.595876 147.431238 
L 882.435754 148.949625 
L 886.006058 150.734843 
L 889.261388 152.79385 
L 890.756751 153.928198 
L 892.156346 155.133604 
L 893.454519 156.410926 
L 894.648179 157.759918 
L 895.739201 159.178184 
L 896.730027 160.663083 
L 897.623102 162.211973 
L 899.125768 165.49116 
L 900.266744 168.994614 
L 901.065575 172.701205 
L 901.541806 176.5898 
L 901.714983 180.639268 
L 901.604649 184.828477 
L 901.230351 189.136297 
L 900.611634 193.541595 
L 899.768043 198.023241 
L 898.719122 202.560103 
L 897.484418 207.131049 
L 895.326772 214.005152 
L 892.861053 220.83708 
L 890.153227 227.555515 
L 887.269258 234.089138 
L 884.275111 240.366631 
L 880.216588 248.240263 
L 876.145771 255.617543 
L 861.458822 281.581635 
L 858.755413 286.946193 
L 856.169562 292.525173 
L 853.718227 298.385935 
L 851.418364 304.595841 
L 849.15185 311.145188 
L 847.334884 315.51021 
L 846.250494 317.623552 
L 845.016758 319.655379 
L 843.613807 321.577684 
L 842.026013 323.362285 
L 840.242664 324.981806 
L 838.258517 326.410737 
L 836.074146 327.626502 
L 833.696038 328.61044 
L 831.136387 329.348637 
L 828.41261 329.832518 
L 825.546581 330.059157 
L 822.570233 330.035284 
L 819.570162 329.806462 
L 813.8573 328.967853 
L 808.907307 327.935598 
L 801.174293 326.13422 
L 800.525057 326.082196 
L 800.212708 326.181806 
L 800.247272 326.44968 
L 800.599091 326.881862 
L 802.148414 328.2284 
L 812.172652 336.29617 
L 816.579018 340.347711 
L 818.74592 342.577639 
L 820.783454 344.908829 
L 822.650771 347.347217 
L 824.314851 349.903991 
L 825.742609 352.586962 
L 826.902642 355.39959 
L 827.76724 358.340122 
L 828.314493 361.400984 
L 828.530276 364.568534 
L 828.409859 367.823284 
L 827.9589 371.140629 
L 827.193642 374.492047 
L 826.140241 377.84666 
L 824.833279 381.173003 
L 823.313641 384.440775 
L 821.626016 387.622404 
L 819.81633 390.694261 
L 816.006823 396.43811 
L 812.198255 401.58096 
L 807.026764 408.07092 
L 801.781347 414.591568 
L 799.061868 418.340183 
L 797.735793 420.501721 
L 796.741319 422.501627 
L 796.038345 424.41907 
L 795.597216 426.325063 
L 795.399072 428.287036 
L 795.436091 430.373925 
L 795.712282 432.662135 
L 796.245416 435.243238 
L 797.070732 438.234779 
L 798.865361 443.624162 
L 804.974504 460.954845 
L 806.176943 465.109773 
L 806.598215 466.969223 
L 806.849482 468.607882 
L 806.911968 470.001881 
L 806.778114 471.146634 
L 806.438142 472.033611 
L 805.880117 472.650035 
L 805.090315 472.97886 
L 804.053872 472.998925 
L 802.75586 472.685417 
L 801.183006 472.010876 
L 799.326286 470.947058 
L 797.184691 469.468063 
L 794.770354 467.555176 
L 792.115079 465.203823 
L 789.277826 462.432716 
L 786.351936 459.294564 
L 783.469782 455.886489 
L 780.801432 452.356709 
L 778.499098 448.890874 
L 776.589975 445.661348 
L 772.75288 438.648831 
L 771.809885 437.445679 
L 770.849152 436.860863 
L 769.772923 436.884292 
L 768.568708 437.435236 
L 767.242527 438.422063 
L 765.800728 439.755393 
L 759.038007 446.735518 
L 757.152121 448.411823 
L 755.2166 449.856606 
L 753.24324 451.017814 
L 751.237701 451.903772 
L 749.205264 452.527083 
L 747.151127 452.901459 
L 745.080374 453.041597 
L 742.99794 452.963048 
L 740.908581 452.682092 
L 738.816854 452.215617 
L 736.727094 451.580999 
L 734.643395 450.795994 
L 730.50929 448.847124 
L 726.442101 446.514946 
L 722.46506 443.945907 
L 714.851614 438.660509 
L 704.353113 431.120674 
L 697.94828 426.253335 
L 693.44477 422.618431 
L 689.190603 418.951853 
L 685.170517 415.196381 
L 681.355462 411.266563 
L 677.715054 407.074216 
L 675.370135 404.089921 
L 673.080328 400.923626 
L 670.836631 397.549202 
L 668.63004 393.940521 
L 666.451552 390.071454 
L 664.292164 385.915872 
L 662.142874 381.447648 
L 658.918279 374.102474 
L 655.696981 366.062439 
L 651.53826 355.024577 
L 645.20553 338.095537 
L 643.081808 333.040922 
L 641.926223 330.76777 
L 641.008436 329.541305 
L 640.64665 329.36596 
L 640.353832 329.50674 
L 640.133066 329.981099 
L 639.984806 330.786028 
L 639.895514 333.281274 
L 640.064561 336.773536 
L 640.470391 341.042615 
L 641.091448 345.868313 
L 641.906176 351.030429 
L 642.893018 356.308764 
L 644.030312 361.483635 
L 645.928097 368.780543 
L 649.546454 381.906577 
L 650.436883 385.938032 
L 651.049839 389.838911 
L 651.313543 393.634033 
L 651.291996 395.499692 
L 651.15622 397.34822 
L 650.897242 399.182719 
L 650.506092 401.006291 
L 649.973795 402.82204 
L 649.291381 404.633068 
L 648.449877 406.442478 
L 647.440556 408.253035 
L 646.264838 410.053541 
L 644.937712 411.814129 
L 643.47511 413.50363 
L 641.892968 415.090874 
L 640.20722 416.544692 
L 638.433799 417.833914 
L 636.58864 418.92737 
L 634.687677 419.793892 
L 632.746845 420.40231 
L 630.782077 420.721454 
L 628.809308 420.721454 
L 626.844481 420.4023 
L 624.90355 419.793846 
L 623.002468 418.927243 
L 621.157188 417.833644 
L 619.383663 416.5442 
L 617.697847 415.090062 
L 616.115693 413.502383 
L 614.653153 411.812314 
L 613.326183 410.051006 
L 612.150733 408.249612 
L 611.141812 406.437982 
L 610.300837 404.627312 
L 609.619069 402.814841 
L 609.08752 400.997476 
L 608.697204 399.172121 
L 608.439134 397.335681 
L 608.304324 395.485061 
L 608.368537 391.728901 
L 608.81795 387.878879 
L 609.580672 383.910235 
L 610.584809 379.798207 
L 613.679551 368.728341 
L 615.577666 361.421043 
L 616.714275 356.23923 
L 617.699591 350.955138 
L 618.84635 343.32155 
L 619.530719 336.70457 
L 619.694008 333.227781 
L 619.597681 330.757443 
L 619.445399 329.969021 
L 619.220363 329.513318 
L 618.923455 329.39008 
L 618.557803 329.581539 
L 618.126574 330.069591 
L 617.080061 331.863075 
L 615.80927 334.625721 
L 613.538011 340.270099 
L 608.990312 352.471738 
L 603.833066 366.205342 
L 600.610913 374.239583 
L 597.386621 381.57598 
L 594.160655 388.14857 
L 591.993975 392.149575 
L 589.803851 395.876734 
L 587.581186 399.356391 
L 585.31688 402.614887 
L 583.001837 405.678565 
L 579.414234 409.966423 
L 575.661292 413.964115 
L 571.712303 417.760548 
L 567.536822 421.444103 
L 563.114526 425.08276 
L 556.821965 429.935831 
L 548.29862 436.136935 
L 537.071506 443.978739 
L 533.099384 446.545027 
L 529.03796 448.874022 
L 524.91018 450.819415 
L 522.829762 451.602618 
L 520.743313 452.235413 
L 518.65489 452.700066 
L 516.568791 452.979217 
L 514.489533 453.055998 
L 512.421838 452.914147 
L 510.370601 452.53813 
L 508.34087 451.913272 
L 506.337808 451.025876 
L 504.366663 449.863356 
L 502.433058 448.417407 
L 500.548778 446.74014 
L 496.989342 443.106345 
L 493.789429 439.75988 
L 492.347716 438.427846 
L 491.021315 437.443008 
L 489.816571 436.894845 
L 488.739493 436.875099 
L 487.77753 437.46463 
L 486.832625 438.673622 
L 484.534584 442.851654 
L 482.982809 445.709385 
L 481.066789 448.947219 
L 478.756597 452.420461 
L 476.08008 455.955908 
L 473.190516 459.367165 
L 470.258823 462.505705 
L 467.417793 465.274519 
L 464.760834 467.621262 
L 462.346754 469.527686 
L 460.207095 470.998823 
L 458.3537 472.053771 
L 456.78529 472.718721 
L 455.492621 473.022105 
L 454.46225 472.991485 
L 453.67914 472.651698 
L 453.128367 472.023864 
L 452.796192 471.124931 
L 452.670707 469.967535 
L 452.742198 468.560012 
L 453.002981 466.907095 
L 453.988677 463.009641 
L 455.3609 458.671731 
L 458.506967 449.776532 
L 461.993893 439.878353 
L 462.973008 436.64607 
L 463.642284 433.881557 
L 464.039916 431.462852 
L 464.191553 429.287339 
L 464.107526 427.272346 
L 463.78557 425.346103 
L 463.212086 423.441075 
L 462.362581 421.488523 
L 461.201851 419.413683 
L 459.684756 417.131484 
L 456.626359 413.100237 
L 445.409096 398.978487 
L 441.558226 393.510946 
L 439.669944 390.560025 
L 437.860936 387.481568 
L 436.17624 384.294812 
L 434.661932 381.023687 
L 433.362719 377.695998 
L 432.319352 374.342185 
L 431.566128 370.993734 
L 431.128783 367.681406 
L 431.023042 364.43348 
L 431.25399 361.274203 
L 431.816328 358.222618 
L 432.695405 355.29187 
L 433.868872 352.489026 
L 435.308691 349.81535 
L 436.983252 347.266942 
L 438.859377 344.835615 
L 440.904055 342.509878 
L 443.073409 340.286223 
L 447.467121 336.253848 
L 451.513426 332.888896 
L 458.949525 326.902442 
L 459.295493 326.472616 
L 459.326496 326.20554 
L 459.013195 326.105048 
L 457.403609 326.332401 
L 445.732546 328.956169 
L 442.95564 329.419517 
L 440.032779 329.794094 
L 437.033937 330.027939 
L 434.052617 330.062013 
L 431.173699 329.851543 
L 428.428823 329.389574 
L 425.84001 328.678468 
L 423.425135 327.726018 
L 421.197169 326.545175 
L 419.163651 325.153506 
L 417.326458 323.572428 
L 415.681835 321.826282 
L 414.220682 319.941325 
L 412.929042 317.944718 
L 411.788728 315.863572 
L 409.87233 311.551051 
L 407.509924 305.044054 
L 405.17515 298.843134 
L 402.722257 292.974302 
L 400.163313 287.372771 
L 396.607297 280.207879 
L 391.97096 271.524065 
L 379.305459 248.303172 
L 375.342611 240.37373 
L 372.401394 234.064871 
L 369.555284 227.508277 
L 366.871895 220.774365 
L 364.418842 213.933548 
L 362.263737 207.056242 
L 361.025918 202.485871 
L 359.970605 197.951442 
L 359.117832 193.473818 
L 358.487633 189.073863 
L 358.100041 184.772439 
L 357.97509 180.590412 
L 358.132815 176.548644 
L 358.593249 172.668 
L 359.376425 168.969342 
L 360.502377 165.473534 
L 361.99114 162.20144 
L 362.877836 160.655806 
L 363.862747 159.173924 
L 364.948377 157.758403 
L 366.137231 156.41185 
L 367.431238 155.13663 
L 368.8273 153.932995 
L 371.902814 151.737102 
L 375.318103 149.817374 
L 379.027478 148.167005 
L 382.985247 146.77919 
L 387.145722 145.647123 
L 391.46321 144.763999 
L 395.892022 144.123012 
L 400.386468 143.717357 
L 404.900857 143.540228 
L 409.389503 143.58482 
L 413.816547 143.843523 
L 418.176606 144.306242 
L 422.470191 144.962398 
L 426.697812 145.801413 
L 430.859979 146.81271 
L 434.957203 147.98571 
L 438.989993 149.309835 
L 444.919481 151.556244 
L 450.706864 154.083184 
L 456.353863 156.854955 
L 461.8622 159.835856 
L 467.233597 162.990186 
L 472.469776 166.282245 
L 479.243984 170.824198 
L 487.384221 176.627789 
L 496.693726 183.571769 
L 527.421012 206.760259 
L 535.911489 212.787618 
L 544.983771 218.941969 
L 552.712514 223.951016 
L 560.884293 229.023659 
L 569.504495 234.142216 
L 578.562054 239.283909 
L 585.56241 243.076737 
L 592.439007 246.514722 
L 596.816661 248.459967 
L 600.9524 250.033504 
L 604.792455 251.157882 
L 606.586802 251.527072 
L 608.290039 251.753816 
L 609.896827 251.827021 
L 611.401798 251.734726 
L 612.799423 251.463843 
L 614.083856 250.999859 
L 615.248774 250.32648 
L 616.287184 249.42522 
L 617.1912 248.274885 
L 617.957987 246.85766 
L 618.609264 245.18174 
L 619.17251 243.264636 
L 620.143612 238.798989 
L 621.627575 231.060771 
L 622.250434 228.459541 
L 622.994854 226.005926 
L 623.896378 223.79677 
L 624.99067 221.925821 
L 626.313555 220.483344 
L 627.901249 219.556259 
L 627.901249 219.556259 
" clip-path="url(#p316af75b4a)" style="fill: none; stroke: #000000; stroke-width: 2; stroke-linecap: square"/>
   </g>
   <g id="line2d_2">
    <path d="M 629.796376 219.228813 
L 635.470965 219.228813 
L 638.688804 233.353728 
L 642.594981 259.342675 
L 714.198896 223.599478 
L 760.149638 183.222593 
L 831.44576 135.609767 
L 917.890909 153.96544 
L 886.703053 246.163526 
L 854.060174 287.648467 
L 841.759634 340.409836 
L 791.79079 322.098932 
L 839.090227 351.46801 
L 825.390627 396.887109 
L 790.548424 424.571718 
L 815.188678 483.981422 
L 777.828167 459.150897 
L 771.610742 429.669894 
L 750.568872 463.320097 
L 717.601411 440.778434 
L 683.956805 416.630651 
L 660.575706 387.211207 
L 636.439115 307.537511 
L 643.406436 371.133204 
L 659.299763 400.048986 
L 629.796376 427.403416 
L 600.287392 400.048986 
L 616.180719 371.1388 
L 623.14804 307.537511 
L 599.011449 387.211207 
L 575.63035 416.630651 
L 541.985744 440.772838 
L 509.018283 463.325693 
L 487.982009 429.669894 
L 481.758988 459.150897 
L 444.398477 483.981422 
L 469.044327 424.566122 
L 434.185336 396.898302 
L 420.519313 351.451221 
L 467.751595 322.138106 
L 417.749173 340.348277 
L 404.301404 288.264054 
L 373.34859 245.704634 
L 341.629091 154.004614 
L 428.174972 135.592978 
L 499.426324 183.228189 
L 545.393855 223.599478 
L 616.986578 259.342675 
L 620.903947 233.359324 
L 624.11619 219.228813 
L 629.790779 219.228813 
" clip-path="url(#p316af75b4a)" style="fill: none; stroke-dasharray: 3.7,1.6; stroke-dashoffset: 0; stroke: #808080"/>
   </g>
  </g>
 </g>
 <defs>
  <clipPath id="p316af75b4a">
   <rect x="153.6" y="73.6128" width="952.32" height="472.3488"/>
  </clipPath>
 </defs>
</svg>
